<?xml version="1.0" standalone="no"?>
<!DOCTYPE svg PUBLIC "-//W3C//DTD SVG 20010904//EN"
 "http://www.w3.org/TR/2001/REC-SVG-20010904/DTD/svg10.dtd">
<svg version="1.0" xmlns="http://www.w3.org/2000/svg"
 width="740.000000pt" height="740.000000pt" viewBox="0 0 740.000000 740.000000"
 preserveAspectRatio="xMidYMid meet">
<metadata>
Created by potrace 1.14, written by Peter Selinger 2001-2017
</metadata>
<g transform="translate(0.000000,740.000000) scale(0.100000,-0.100000)"
fill="#000000" stroke="none">
<path d="M5523 7213 c-36 -12 -118 -96 -561 -571 -615 -661 -644 -692 -687
-757 -108 -163 -185 -384 -199 -570 -2 -27 -5 -113 -5 -190 l-1 -140 -90 -100
c-110 -122 -124 -150 -124 -235 0 -131 94 -230 216 -230 73 1 116 29 236 156
174 183 199 248 201 534 1 101 6 204 11 229 20 105 71 220 137 308 34 44 769
840 1038 1123 99 104 115 137 115 231 0 65 -25 122 -71 166 -64 61 -134 76
-216 46z"/>
<path d="M844 6976 c-90 -42 -222 -228 -294 -416 -51 -131 -90 -361 -90 -529
0 -262 67 -588 180 -871 66 -164 69 -170 158 -335 81 -148 195 -319 296 -445
117 -145 1368 -1480 1428 -1524 74 -54 219 -121 308 -143 100 -23 278 -23 383
1 129 30 164 17 301 -115 118 -113 146 -163 146 -264 0 -94 17 -228 37 -290
30 -96 95 -207 168 -285 75 -82 291 -318 470 -514 61 -67 135 -148 166 -181
31 -33 92 -99 135 -147 502 -551 506 -555 613 -618 92 -54 187 -81 307 -87
228 -13 431 80 588 267 51 62 131 230 151 320 11 46 17 118 17 185 0 168 -34
295 -115 430 -45 74 -35 62 -1447 1580 -3779 4059 -3687 3961 -3738 3982 -65
27 -108 27 -168 -1z m1528 -2093 c771 -829 1804 -1938 2293 -2463 490 -525
950 -1019 1022 -1098 165 -177 187 -216 187 -332 1 -105 -25 -170 -91 -231
-62 -57 -115 -79 -194 -79 -123 0 -139 13 -535 448 -449 494 -700 769 -770
842 -171 179 -179 196 -188 381 -5 114 -11 151 -36 229 -42 129 -85 195 -219
332 -184 189 -247 230 -426 275 -56 14 -176 11 -265 -8 -164 -35 -286 -11
-395 80 -30 25 -306 316 -613 646 -306 330 -568 611 -582 625 -14 14 -64 72
-111 130 -390 476 -604 1086 -539 1536 12 86 43 194 55 194 2 0 635 -678 1407
-1507z"/>
<path d="M6049 6620 c-50 -27 -1168 -1229 -1193 -1283 -25 -55 -26 -149 -1
-200 21 -46 65 -91 108 -114 43 -22 124 -22 173 0 31 14 177 165 605 624 310
333 575 624 589 647 21 34 25 53 25 116 0 82 -13 114 -64 166 -17 18 -47 39
-65 48 -46 22 -132 20 -177 -4z"/>
<path d="M6614 6044 c-34 -12 -130 -111 -597 -612 -306 -328 -574 -612 -596
-630 -58 -47 -177 -108 -246 -127 -34 -9 -118 -18 -195 -21 -328 -11 -354 -19
-499 -168 -164 -167 -191 -209 -191 -301 0 -126 100 -235 215 -235 66 0 115
31 213 132 l92 95 173 6 c94 4 201 13 237 21 187 40 369 135 507 262 23 22
291 307 595 635 597 642 580 621 580 731 -1 82 -53 167 -124 204 -43 22 -114
26 -164 8z"/>
<path d="M1821 2882 c-60 -20 31 74 -1076 -1112 -198 -211 -244 -268 -285
-350 -71 -142 -95 -262 -87 -439 10 -244 91 -421 266 -583 134 -124 300 -189
486 -189 119 -1 209 18 308 65 105 48 176 107 319 263 69 76 154 167 189 203
34 36 298 320 586 633 346 375 531 582 543 610 23 51 22 156 -2 202 -55 104
-174 151 -278 109 -43 -17 -10 17 -1002 -1057 -427 -462 -462 -498 -522 -527
-126 -62 -255 -40 -357 60 -74 73 -102 143 -102 255 0 89 16 142 61 208 16 23
161 182 322 352 161 171 336 357 389 414 53 58 187 201 298 319 171 181 205
221 219 264 32 97 -2 214 -79 272 -55 41 -127 52 -196 28z"/>
</g>
</svg>
